<?xml version="1.0" standalone="no"?>
<!DOCTYPE svg PUBLIC "-//W3C//DTD SVG 20010904//EN"
 "http://www.w3.org/TR/2001/REC-SVG-20010904/DTD/svg10.dtd">
<svg version="1.0" xmlns="http://www.w3.org/2000/svg"
 width="600.000000pt" height="600.000000pt" viewBox="0 0 600.000000 600.000000"
 preserveAspectRatio="xMidYMid meet">
<metadata>
Created by potrace 1.11, written by Peter Selinger 2001-2013
</metadata>
<g transform="translate(0.000000,600.000000) scale(0.100000,-0.100000)"
fill="#000000" stroke="none">
<path d="M2887 5994 c-1 -1 -47 -4 -102 -8 -55 -3 -109 -8 -120 -10 -11 -2
-47 -7 -80 -11 -460 -52 -1005 -280 -1403 -587 -153 -118 -351 -306 -457 -433
-27 -33 -52 -62 -56 -65 -28 -24 -221 -309 -280 -415 -139 -252 -265 -583
-314 -825 -32 -157 -40 -212 -50 -320 -4 -41 -9 -84 -11 -95 -6 -28 -5 -399 0
-461 44 -485 185 -918 430 -1324 38 -63 72 -117 75 -120 3 -3 21 -27 40 -55
219 -320 592 -660 946 -862 232 -133 549 -262 757 -309 20 -4 27 -6 118 -27
175 -41 381 -61 625 -61 190 0 295 6 447 29 961 144 1800 757 2237 1634 26 53
65 139 86 191 20 52 41 104 46 115 43 97 121 403 144 565 3 25 8 56 10 70 27
179 27 621 0 770 -2 14 -6 43 -9 65 -11 85 -27 168 -57 282 -16 65 -32 125
-34 133 -27 104 -132 363 -205 506 -95 184 -253 422 -370 558 -132 153 -267
284 -410 400 -113 91 -301 226 -316 226 -4 0 -15 6 -23 14 -30 27 -326 174
-441 219 -186 74 -442 145 -615 172 -194 29 -280 36 -473 39 -73 1 -134 1
-135 0z"/>
</g>
</svg>
